<?xml version="1.0" standalone="no"?>
<!DOCTYPE svg PUBLIC "-//W3C//DTD SVG 20010904//EN"
 "http://www.w3.org/TR/2001/REC-SVG-20010904/DTD/svg10.dtd">
<svg version="1.0" xmlns="http://www.w3.org/2000/svg"
 width="114.000000pt" height="114.000000pt" viewBox="0 0 114.000000 114.000000"
 preserveAspectRatio="xMidYMid meet">
<metadata>
Created by potrace 1.14, written by Peter Selinger 2001-2017
</metadata>
<g transform="translate(0.000000,114.000000) scale(0.100000,-0.100000)"
fill="#000000" stroke="none">
<path d="M31 872 c-28 -43 -29 -47 -13 -63 9 -9 20 -15 23 -13 3 1 17 -8 31
-21 14 -13 30 -21 34 -17 5 4 1 -2 -8 -13 -26 -32 -58 -95 -49 -95 5 0 39 -18
75 -40 36 -22 68 -40 71 -40 4 0 16 -8 29 -17 l22 -17 -28 -52 -28 -52 30 -13
c16 -8 30 -17 30 -21 0 -5 6 -8 14 -8 8 0 17 -4 20 -8 6 -9 -31 -83 -45 -93
-15 -9 69 -69 96 -69 3 0 19 24 35 53 17 28 35 59 40 67 48 77 97 170 92 174
-3 3 -1 6 4 6 5 0 20 20 34 45 14 25 30 45 36 45 6 0 19 -18 29 -40 10 -22 23
-40 28 -40 6 0 7 -3 4 -6 -4 -4 2 -19 13 -34 11 -16 20 -33 20 -39 0 -6 5 -11
10 -11 6 0 10 -4 10 -9 0 -11 98 -181 115 -200 11 -11 20 -9 59 14 25 15 46
29 46 32 0 2 -12 24 -26 49 -30 51 -26 62 31 84 19 7 35 19 35 24 0 6 -11 32
-25 58 -19 36 -22 49 -12 55 13 9 47 28 92 52 17 9 44 25 60 36 17 10 31 20
33 21 6 3 -32 74 -40 74 -4 0 -8 8 -8 18 0 12 16 27 45 42 25 13 45 27 45 32
0 5 -12 29 -26 53 -29 50 -30 50 -111 -2 -29 -19 -53 -30 -53 -26 0 4 -9 -3
-21 -15 -11 -12 -24 -20 -30 -17 -5 4 -9 1 -9 -4 0 -6 -7 -11 -15 -11 -8 0
-15 -5 -15 -10 0 -6 -3 -9 -7 -8 -5 1 -19 -5 -33 -14 -42 -27 -114 -67 -140
-78 -13 -6 -27 -14 -30 -18 -9 -13 -68 -42 -83 -42 -9 0 -17 3 -19 8 -1 4 -28
20 -58 36 -30 16 -57 32 -60 35 -3 4 -24 15 -47 26 -24 11 -43 23 -43 28 0 4
-4 7 -8 7 -9 0 -210 113 -227 128 -30 25 -44 20 -74 -26z"/>
<path d="M531 826 l-44 -45 42 -40 c24 -23 45 -41 47 -41 5 0 84 79 84 83 0 2
-19 22 -43 45 l-43 42 -43 -44z"/>
</g>
</svg>
