<svg width="392" height="409" viewBox="0 0 392 409" fill="none" xmlns="http://www.w3.org/2000/svg">
<rect x="166.609" y="321.126" width="6.77339" height="6.77339" transform="rotate(-45 166.609 321.126)" fill="#FED500"/>
<rect x="166.609" y="330.802" width="6.77339" height="6.77339" transform="rotate(-45 166.609 330.802)" fill="#FED500"/>
<rect x="166.609" y="340.381" width="6.77339" height="6.77339" transform="rotate(-45 166.609 340.381)" fill="#FED500"/>
<rect x="166.609" y="350.057" width="6.77339" height="6.77339" transform="rotate(-45 166.609 350.057)" fill="#FED500"/>
<rect x="166.609" y="359.636" width="6.77339" height="6.77339" transform="rotate(-45 166.609 359.636)" fill="#FED500"/>
<rect x="166.609" y="369.215" width="6.77339" height="6.77339" transform="rotate(-45 166.609 369.215)" fill="#FED500"/>
<rect x="166.609" y="378.891" width="6.77339" height="6.77339" transform="rotate(-45 166.609 378.891)" fill="#FED500"/>
<rect x="156.981" y="359.636" width="6.77339" height="6.77339" transform="rotate(-45 156.981 359.636)" fill="#FED500"/>
<rect x="147.353" y="359.636" width="6.77339" height="6.77339" transform="rotate(-45 147.353 359.636)" fill="#FED500"/>
<rect x="137.726" y="359.636" width="6.77339" height="6.77339" transform="rotate(-45 137.726 359.636)" fill="#FED500"/>
<rect x="119.846" y="359.644" width="12.6191" height="12.6191" transform="rotate(-45 119.846 359.644)" fill="#FED500"/>
<rect x="205.119" y="359.644" width="12.6191" height="12.6191" transform="rotate(-45 205.119 359.644)" fill="#FED500"/>
<rect x="181.738" y="345.89" width="12.6191" height="12.6191" transform="rotate(-45 181.738 345.89)" fill="#338EEE"/>
<rect x="181.738" y="373.397" width="12.6191" height="12.6191" transform="rotate(-45 181.738 373.397)" fill="#338EEE"/>
<rect x="143.227" y="345.89" width="12.6191" height="12.6191" transform="rotate(-45 143.227 345.89)" fill="#338EEE"/>
<rect x="162.483" y="307.379" width="12.6191" height="12.6191" transform="rotate(-45 162.483 307.379)" fill="#338EEE"/>
<rect x="143.227" y="373.397" width="12.6191" height="12.6191" transform="rotate(-45 143.227 373.397)" fill="#338EEE"/>
<rect x="195.492" y="359.636" width="6.77339" height="6.77339" transform="rotate(-45 195.492 359.636)" fill="#FED500"/>
<rect x="185.864" y="359.636" width="6.77339" height="6.77339" transform="rotate(-45 185.864 359.636)" fill="#FED500"/>
<rect x="176.236" y="359.636" width="6.77339" height="6.77339" transform="rotate(-45 176.236 359.636)" fill="#FED500"/>
<path fill-rule="evenodd" clip-rule="evenodd" d="M130.804 303.782L107.811 280.789L112.249 276.352L116.625 280.728L121.062 276.291L144.16 299.389L139.767 303.782L144.038 308.053L120.941 331.151L116.564 326.775L112.188 331.151L107.811 326.775L130.804 303.782ZM144.038 308.053L125.317 326.775L129.694 331.151L134.07 326.775L138.446 331.151L161.544 308.053L157.168 303.677L152.791 308.053L148.415 303.677L144.038 308.053ZM139.618 303.721L135.346 299.45L131.014 303.782L135.286 308.053L139.618 303.721ZM125.439 280.668L148.537 303.765L152.974 299.328L157.35 303.705L161.787 299.267L138.689 276.17L134.252 280.607L129.876 276.23L125.439 280.668Z" fill="#FED500"/>
<path fill-rule="evenodd" clip-rule="evenodd" d="M135.302 281.608L126.379 290.531L135.302 299.454L144.225 290.531L135.302 281.608ZM135.302 308.084L126.379 317.007L135.302 325.93L144.225 317.007L135.302 308.084Z" fill="#338EEE"/>
<rect x="107.468" y="307.716" width="6.77339" height="6.77339" transform="rotate(-45 107.468 307.716)" fill="#FED500"/>
<rect x="107.468" y="298.088" width="6.77339" height="6.77339" transform="rotate(-45 107.468 298.088)" fill="#FED500"/>
<rect x="97.8401" y="307.716" width="6.77339" height="6.77339" transform="rotate(-45 97.8401 307.716)" fill="#FED500"/>
<rect x="97.8401" y="298.088" width="6.77339" height="6.77339" transform="rotate(-45 97.8401 298.088)" fill="#FED500"/>
<path fill-rule="evenodd" clip-rule="evenodd" d="M211.148 303.782L206.922 308.053L229.772 331.151L234.101 326.775L211.355 303.782L234.101 280.789L229.711 276.352L206.862 299.45L211.148 303.782ZM202.636 303.721L225.382 280.728L220.993 276.291L216.663 280.668L212.274 276.23L207.944 280.607L203.555 276.17L180.706 299.267L185.095 303.705L189.424 299.328L193.814 303.765L198.143 299.389L202.489 303.782L198.263 308.053L221.113 331.151L225.442 326.775L202.636 303.721ZM216.783 326.775L193.934 303.677L189.605 308.053L185.275 303.677L180.946 308.053L203.795 331.151L208.125 326.775L212.454 331.151L216.783 326.775Z" fill="#FED500"/>
<path fill-rule="evenodd" clip-rule="evenodd" d="M206.907 281.608L215.734 290.531L206.907 299.454L198.08 290.531L206.907 281.608ZM206.907 308.084L215.734 317.007L206.907 325.93L198.08 317.007L206.907 308.084Z" fill="#338EEE"/>
<rect width="6.73707" height="6.73707" transform="matrix(-0.703274 -0.710919 -0.703274 0.710919 234.442 307.716)" fill="#FED500"/>
<rect width="6.73707" height="6.73707" transform="matrix(-0.703274 -0.710919 -0.703274 0.710919 234.442 298.088)" fill="#FED500"/>
<rect width="6.73707" height="6.73707" transform="matrix(-0.703274 -0.710919 -0.703274 0.710919 243.966 307.716)" fill="#FED500"/>
<rect width="6.73707" height="6.73707" transform="matrix(-0.703274 -0.710919 -0.703274 0.710919 243.966 298.088)" fill="#FED500"/>
<path fill-rule="evenodd" clip-rule="evenodd" d="M170.944 262.849L166.673 267.075L171.005 271.361L175.276 267.135L170.944 262.849ZM170.944 271.508L166.673 275.734L143.575 252.884L147.951 248.555L143.575 244.225L147.951 239.896L170.944 262.642L193.937 239.896L198.374 244.286L193.998 248.615L198.435 253.004L175.337 275.854L170.944 271.508ZM194.058 257.334L170.961 280.183L175.398 284.573L171.021 288.902L175.459 293.291L198.556 270.442L194.119 266.053L198.496 261.723L194.058 257.334ZM171.049 280.063L166.673 284.392L171.049 288.721L166.673 293.051L143.575 270.201L147.951 265.872L143.575 261.543L147.951 257.214L171.049 280.063Z" fill="#FED500"/>
<path fill-rule="evenodd" clip-rule="evenodd" d="M193.118 267.091L184.195 258.264L175.272 267.091L184.195 275.918L193.118 267.091ZM166.642 267.091L157.719 258.264L148.796 267.091L157.719 275.918L166.642 267.091Z" fill="#338EEE"/>
<rect width="6.73707" height="6.73707" transform="matrix(0.710919 0.703274 -0.710919 0.703274 167.01 239.556)" fill="#FED500"/>
<rect width="6.73707" height="6.73707" transform="matrix(0.710919 0.703274 -0.710919 0.703274 176.638 239.556)" fill="#FED500"/>
<rect width="6.73707" height="6.73707" transform="matrix(0.710919 0.703274 -0.710919 0.703274 167.01 230.031)" fill="#FED500"/>
<rect width="6.73707" height="6.73707" transform="matrix(0.710919 0.703274 -0.710919 0.703274 176.638 230.031)" fill="#FED500"/>
<rect width="6.73707" height="6.73707" transform="matrix(0.710919 0.703274 -0.710919 0.703274 125.671 261.562)" fill="#FED500"/>
<rect width="6.73707" height="6.73707" transform="matrix(0.710919 0.703274 -0.710919 0.703274 135.298 261.562)" fill="#FED500"/>
<rect width="6.73707" height="6.73707" transform="matrix(0.710919 0.703274 -0.710919 0.703274 125.671 252.038)" fill="#FED500"/>
<rect width="6.73707" height="6.73707" transform="matrix(0.710919 0.703274 -0.710919 0.703274 135.298 252.038)" fill="#FED500"/>
<rect width="6.73707" height="6.73707" transform="matrix(0.710919 0.703274 -0.710919 0.703274 207.845 261.562)" fill="#FED500"/>
<rect width="6.73707" height="6.73707" transform="matrix(0.710919 0.703274 -0.710919 0.703274 217.473 261.562)" fill="#FED500"/>
<rect width="6.73707" height="6.73707" transform="matrix(0.710919 0.703274 -0.710919 0.703274 207.845 252.038)" fill="#FED500"/>
<rect width="6.73707" height="6.73707" transform="matrix(0.710919 0.703274 -0.710919 0.703274 217.473 252.038)" fill="#FED500"/>
<rect width="6.77339" height="6.77339" transform="matrix(0.707107 -0.707107 -0.707107 -0.707107 322.689 353.808)" fill="#FED500"/>
<rect width="6.77339" height="6.77339" transform="matrix(0.707107 -0.707107 -0.707107 -0.707107 313.013 353.808)" fill="#FED500"/>
<rect width="6.77339" height="6.77339" transform="matrix(0.707107 -0.707107 -0.707107 -0.707107 303.434 353.808)" fill="#FED500"/>
<rect width="6.77339" height="6.77339" transform="matrix(0.707107 -0.707107 -0.707107 -0.707107 293.758 353.808)" fill="#FED500"/>
<rect width="6.77339" height="6.77339" transform="matrix(0.707107 -0.707107 -0.707107 -0.707107 284.179 353.808)" fill="#FED500"/>
<rect width="6.77339" height="6.77339" transform="matrix(0.707107 -0.707107 -0.707107 -0.707107 274.6 353.808)" fill="#FED500"/>
<rect width="6.77339" height="6.77339" transform="matrix(0.707107 -0.707107 -0.707107 -0.707107 264.923 353.808)" fill="#FED500"/>
<rect width="6.77339" height="6.77339" transform="matrix(0.707107 -0.707107 -0.707107 -0.707107 284.179 363.435)" fill="#FED500"/>
<rect width="6.77339" height="6.77339" transform="matrix(0.707107 -0.707107 -0.707107 -0.707107 284.179 373.063)" fill="#FED500"/>
<rect width="6.77339" height="6.77339" transform="matrix(0.707107 -0.707107 -0.707107 -0.707107 284.179 382.691)" fill="#FED500"/>
<path fill-rule="evenodd" clip-rule="evenodd" d="M283.166 383.73L284.171 382.724L285.177 383.73H283.166Z" fill="#FED500"/>
<rect width="12.6191" height="12.6191" transform="matrix(0.707107 -0.707107 -0.707107 -0.707107 284.171 315.297)" fill="#FED500"/>
<rect width="12.6191" height="12.6191" transform="matrix(0.707107 -0.707107 -0.707107 -0.707107 297.925 338.678)" fill="#338EEE"/>
<rect width="12.6191" height="12.6191" transform="matrix(0.707107 -0.707107 -0.707107 -0.707107 270.418 338.678)" fill="#338EEE"/>
<rect width="12.6191" height="12.6191" transform="matrix(0.707107 -0.707107 -0.707107 -0.707107 297.925 377.189)" fill="#338EEE"/>
<rect width="12.6191" height="12.6191" transform="matrix(0.707107 -0.707107 -0.707107 -0.707107 336.436 357.934)" fill="#338EEE"/>
<rect width="12.6191" height="12.6191" transform="matrix(0.707107 -0.707107 -0.707107 -0.707107 270.418 377.189)" fill="#338EEE"/>
<rect width="6.77339" height="6.77339" transform="matrix(0.707107 -0.707107 -0.707107 -0.707107 284.179 324.925)" fill="#FED500"/>
<rect width="6.77339" height="6.77339" transform="matrix(0.707107 -0.707107 -0.707107 -0.707107 284.179 334.552)" fill="#FED500"/>
<rect width="6.77339" height="6.77339" transform="matrix(0.707107 -0.707107 -0.707107 -0.707107 284.179 344.18)" fill="#FED500"/>
<path fill-rule="evenodd" clip-rule="evenodd" d="M337.162 383.73L340.093 380.799L343.024 383.73H365.642L367.645 381.727L344.547 358.629L340.11 363.067L344.486 367.443L340.049 371.88L344.426 376.257L340.033 380.649L335.761 376.378L340.138 372.002L335.761 367.625L340.138 363.249L335.761 358.872L312.663 381.97L314.423 383.73H337.162ZM367.413 408.217V408.118L367.463 408.168L367.413 408.217ZM367.413 399.464V399.244L367.523 399.354L367.413 399.464ZM367.413 390.711V390.37L367.584 390.541L367.413 390.711Z" fill="#FED500"/>
<path fill-rule="evenodd" clip-rule="evenodd" d="M340.033 309.268L335.761 313.494L340.094 317.78L344.365 313.554L340.033 309.268ZM340.033 317.927L335.761 322.153L312.664 299.303L317.04 294.974L312.664 290.645L317.04 286.315L340.033 309.061L363.026 286.315L367.463 290.705L363.086 295.034L367.524 299.424L363.147 303.753L367.584 308.143L363.208 312.472L367.645 316.861L344.547 339.711L340.11 335.321L344.487 330.992L340.049 326.602L344.426 322.273L340.033 317.927ZM317.04 303.633L340.138 326.482L335.762 330.811L340.138 335.141L335.761 339.47L312.664 316.621L317.04 312.291L312.664 307.962L317.04 303.633Z" fill="#FED500"/>
<path fill-rule="evenodd" clip-rule="evenodd" d="M362.207 313.51L353.284 304.683L344.361 313.51L353.284 322.337L362.207 313.51ZM335.731 313.51L326.808 304.683L317.885 313.51L326.808 322.337L335.731 313.51Z" fill="#338EEE"/>
<rect width="6.73707" height="6.73707" transform="matrix(0.710919 0.703274 -0.710919 0.703274 336.1 285.975)" fill="#FED500"/>
<rect width="6.73707" height="6.73707" transform="matrix(0.710919 0.703274 -0.710919 0.703274 345.727 285.975)" fill="#FED500"/>
<rect width="6.73707" height="6.73707" transform="matrix(0.710919 0.703274 -0.710919 0.703274 336.1 276.451)" fill="#FED500"/>
<rect width="6.73707" height="6.73707" transform="matrix(0.710919 0.703274 -0.710919 0.703274 345.727 276.451)" fill="#FED500"/>
<path fill-rule="evenodd" clip-rule="evenodd" d="M403.861 326.421L403.919 326.479L403.861 326.538V326.421ZM392.17 338.356V323.356L390.811 321.981L367.961 345.079L372.307 349.472L368.081 353.744L363.752 349.367L359.423 353.744L355.093 349.367L350.764 353.744L373.613 376.841L377.943 372.465L382.272 376.841L386.601 372.465L390.931 376.841L392.17 375.588V369.341L372.454 349.411L376.68 345.14L380.966 349.472L376.74 353.744L392.17 369.341V360.588L381.173 349.472L392.17 338.356ZM403.861 372.406L403.919 372.465L403.861 372.524V372.406ZM363.632 349.455L386.481 326.358L382.092 321.92L377.762 326.297L373.373 321.86L350.524 344.957L354.913 349.395L359.242 345.018L363.632 349.455Z" fill="#FED500"/>
<path fill-rule="evenodd" clip-rule="evenodd" d="M376.724 327.298L385.552 336.221L376.724 345.144L367.897 336.221L376.724 327.298ZM376.724 353.774L385.552 362.697L376.724 371.62L367.897 362.697L376.724 353.774Z" fill="#338EEE"/>
<path fill-rule="evenodd" clip-rule="evenodd" d="M382.199 385.062L382.254 385.118L382.199 385.174V385.062ZM380.88 383.73H374.151L377.516 380.328L380.88 383.73ZM372.915 384.979V385.257L372.778 385.118L372.915 384.979Z" fill="#FED500"/>
<path fill-rule="evenodd" clip-rule="evenodd" d="M390.404 383.73H383.675L387.04 380.328L390.404 383.73Z" fill="#FED500"/>
<rect width="6.73707" height="6.73707" transform="matrix(-0.703274 -0.710919 -0.703274 0.710919 382.253 312.571)" fill="#FED500"/>
<rect width="6.73707" height="6.73707" transform="matrix(-0.703274 -0.710919 -0.703274 0.710919 382.253 302.943)" fill="#FED500"/>
<rect width="6.73707" height="6.73707" transform="matrix(-0.703274 -0.710919 -0.703274 0.710919 391.778 312.571)" fill="#FED500"/>
<rect width="6.73707" height="6.73707" transform="matrix(-0.703274 -0.710919 -0.703274 0.710919 391.778 302.943)" fill="#FED500"/>
<path fill-rule="evenodd" clip-rule="evenodd" d="M345.745 383.73H360.822L353.284 376.191L345.745 383.73ZM334.347 383.73H319.27L326.808 376.191L334.347 383.73Z" fill="#338EEE"/>
<rect x="285.923" y="199.061" width="6.77339" height="6.77339" transform="rotate(-45 285.923 199.061)" fill="#FED500"/>
<rect x="285.923" y="208.738" width="6.77339" height="6.77339" transform="rotate(-45 285.923 208.738)" fill="#FED500"/>
<rect x="285.923" y="218.316" width="6.77339" height="6.77339" transform="rotate(-45 285.923 218.316)" fill="#FED500"/>
<rect x="285.923" y="227.993" width="6.77339" height="6.77339" transform="rotate(-45 285.923 227.993)" fill="#FED500"/>
<rect x="285.923" y="237.572" width="6.77339" height="6.77339" transform="rotate(-45 285.923 237.572)" fill="#FED500"/>
<rect x="285.923" y="247.151" width="6.77339" height="6.77339" transform="rotate(-45 285.923 247.151)" fill="#FED500"/>
<rect x="285.923" y="256.827" width="6.77339" height="6.77339" transform="rotate(-45 285.923 256.827)" fill="#FED500"/>
<rect x="276.295" y="237.572" width="6.77339" height="6.77339" transform="rotate(-45 276.295 237.572)" fill="#FED500"/>
<rect x="266.667" y="237.572" width="6.77339" height="6.77339" transform="rotate(-45 266.667 237.572)" fill="#FED500"/>
<rect x="257.04" y="237.572" width="6.77339" height="6.77339" transform="rotate(-45 257.04 237.572)" fill="#FED500"/>
<rect x="239.16" y="237.579" width="12.6191" height="12.6191" transform="rotate(-45 239.16 237.579)" fill="#FED500"/>
<rect x="324.433" y="237.579" width="12.6191" height="12.6191" transform="rotate(-45 324.433 237.579)" fill="#FED500"/>
<rect x="301.052" y="223.826" width="12.6191" height="12.6191" transform="rotate(-45 301.052 223.826)" fill="#338EEE"/>
<rect x="301.052" y="251.333" width="12.6191" height="12.6191" transform="rotate(-45 301.052 251.333)" fill="#338EEE"/>
<rect x="262.541" y="223.826" width="12.6191" height="12.6191" transform="rotate(-45 262.541 223.826)" fill="#338EEE"/>
<rect x="281.796" y="185.315" width="12.6191" height="12.6191" transform="rotate(-45 281.796 185.315)" fill="#338EEE"/>
<rect x="262.541" y="251.333" width="12.6191" height="12.6191" transform="rotate(-45 262.541 251.333)" fill="#338EEE"/>
<rect x="314.806" y="237.572" width="6.77339" height="6.77339" transform="rotate(-45 314.806 237.572)" fill="#FED500"/>
<rect x="305.178" y="237.572" width="6.77339" height="6.77339" transform="rotate(-45 305.178 237.572)" fill="#FED500"/>
<rect x="295.55" y="237.572" width="6.77339" height="6.77339" transform="rotate(-45 295.55 237.572)" fill="#FED500"/>
<path fill-rule="evenodd" clip-rule="evenodd" d="M250.328 181.718L254.599 185.989L231.502 209.087L227.125 204.71L250.118 181.718L227.125 158.725L231.563 154.288L235.939 158.664L240.376 154.227L244.752 158.603L249.19 154.166L253.566 158.542L258.003 154.105L281.101 177.203L276.664 181.64L272.287 177.264L267.85 181.701L263.474 177.325L259.081 181.718L263.352 185.989L267.729 181.613L272.105 185.989L276.481 181.613L280.858 185.989L257.76 209.087L253.384 204.711L249.007 209.087L244.631 204.711L240.254 209.087L235.878 204.711L258.932 181.657L254.66 177.385L250.328 181.718Z" fill="#FED500"/>
<path fill-rule="evenodd" clip-rule="evenodd" d="M254.616 159.544L245.693 168.467L254.616 177.39L263.539 168.467L254.616 159.544ZM254.616 186.02L245.693 194.943L254.616 203.866L263.539 194.943L254.616 186.02Z" fill="#338EEE"/>
<rect x="226.782" y="185.651" width="6.77339" height="6.77339" transform="rotate(-45 226.782 185.651)" fill="#FED500"/>
<rect x="226.782" y="176.024" width="6.77339" height="6.77339" transform="rotate(-45 226.782 176.024)" fill="#FED500"/>
<rect x="217.154" y="185.651" width="6.77339" height="6.77339" transform="rotate(-45 217.154 185.651)" fill="#FED500"/>
<rect x="217.154" y="176.024" width="6.77339" height="6.77339" transform="rotate(-45 217.154 176.024)" fill="#FED500"/>
<path fill-rule="evenodd" clip-rule="evenodd" d="M330.462 181.718L326.236 185.989L349.085 209.087L353.415 204.71L330.669 181.718L353.415 158.725L349.025 154.287L326.176 177.385L330.462 181.718ZM321.95 181.657L344.696 158.664L340.306 154.227L317.457 177.325L321.803 181.717L317.577 185.989L313.248 181.613L308.918 185.989L304.589 181.613L300.26 185.989L323.109 209.087L327.438 204.71L331.768 209.087L336.097 204.71L340.426 209.087L344.756 204.71L321.95 181.657ZM335.977 158.603L313.127 181.701L308.738 177.264L304.409 181.64L300.019 177.203L322.869 154.105L327.258 158.542L331.587 154.166L335.977 158.603Z" fill="#FED500"/>
<path fill-rule="evenodd" clip-rule="evenodd" d="M326.22 159.544L335.047 168.467L326.22 177.39L317.393 168.467L326.22 159.544ZM326.22 186.02L335.047 194.943L326.22 203.866L317.393 194.943L326.22 186.02Z" fill="#338EEE"/>
<rect width="6.73707" height="6.73707" transform="matrix(-0.703274 -0.710919 -0.703274 0.710919 353.756 185.651)" fill="#FED500"/>
<rect width="6.73707" height="6.73707" transform="matrix(-0.703274 -0.710919 -0.703274 0.710919 353.756 176.024)" fill="#FED500"/>
<rect width="6.73707" height="6.73707" transform="matrix(-0.703274 -0.710919 -0.703274 0.710919 363.28 185.651)" fill="#FED500"/>
<rect width="6.73707" height="6.73707" transform="matrix(-0.703274 -0.710919 -0.703274 0.710919 363.28 176.024)" fill="#FED500"/>
<path fill-rule="evenodd" clip-rule="evenodd" d="M290.258 140.785L285.987 145.01L290.319 149.296L294.59 145.071L290.258 140.785ZM290.258 149.444L285.987 153.669L262.889 130.82L267.265 126.491L262.889 122.161L267.265 117.832L290.258 140.577L313.251 117.832L317.688 122.221L313.312 126.551L317.749 130.94L294.651 153.79L290.258 149.444ZM313.372 135.27L290.275 158.119L294.712 162.508L290.335 166.838L294.773 171.227L317.87 148.378L313.433 143.988L317.81 139.659L313.372 135.27ZM267.265 135.149L290.363 157.999L285.987 162.328L290.363 166.657L285.987 170.987L262.889 148.137L267.265 143.808L262.889 139.479L267.265 135.149Z" fill="#FED500"/>
<path fill-rule="evenodd" clip-rule="evenodd" d="M312.432 145.026L303.509 136.199L294.586 145.026L303.509 153.853L312.432 145.026ZM285.957 145.026L277.034 136.199L268.111 145.026L277.034 153.853L285.957 145.026Z" fill="#338EEE"/>
<rect width="6.73707" height="6.73707" transform="matrix(0.710919 0.703274 -0.710919 0.703274 286.324 117.491)" fill="#FED500"/>
<rect width="6.73707" height="6.73707" transform="matrix(0.710919 0.703274 -0.710919 0.703274 295.952 117.491)" fill="#FED500"/>
<rect width="6.73707" height="6.73707" transform="matrix(0.710919 0.703274 -0.710919 0.703274 286.324 107.967)" fill="#FED500"/>
<rect width="6.73707" height="6.73707" transform="matrix(0.710919 0.703274 -0.710919 0.703274 295.952 107.967)" fill="#FED500"/>
<rect width="6.73707" height="6.73707" transform="matrix(0.710919 0.703274 -0.710919 0.703274 244.985 139.497)" fill="#FED500"/>
<rect width="6.73707" height="6.73707" transform="matrix(0.710919 0.703274 -0.710919 0.703274 254.612 139.497)" fill="#FED500"/>
<rect width="6.73707" height="6.73707" transform="matrix(0.710919 0.703274 -0.710919 0.703274 244.985 129.973)" fill="#FED500"/>
<rect width="6.73707" height="6.73707" transform="matrix(0.710919 0.703274 -0.710919 0.703274 254.612 129.973)" fill="#FED500"/>
<rect width="6.73707" height="6.73707" transform="matrix(0.710919 0.703274 -0.710919 0.703274 327.159 139.497)" fill="#FED500"/>
<rect width="6.73707" height="6.73707" transform="matrix(0.710919 0.703274 -0.710919 0.703274 336.787 139.497)" fill="#FED500"/>
<rect width="6.73707" height="6.73707" transform="matrix(0.710919 0.703274 -0.710919 0.703274 327.159 129.973)" fill="#FED500"/>
<rect width="6.73707" height="6.73707" transform="matrix(0.710919 0.703274 -0.710919 0.703274 336.787 129.973)" fill="#FED500"/>
<path fill-rule="evenodd" clip-rule="evenodd" d="M392.17 235.819L387.405 231.053L392.17 226.288V235.819Z" fill="#FED500"/>
<rect width="6.77339" height="6.77339" transform="matrix(0.707107 -0.707107 -0.707107 -0.707107 382.518 235.843)" fill="#FED500"/>
<path fill-rule="evenodd" clip-rule="evenodd" d="M392.17 216.556L388.012 220.714L379.089 211.791L388.012 202.868L392.17 207.026V216.556Z" fill="#338EEE"/>
<path fill-rule="evenodd" clip-rule="evenodd" d="M392.17 255.067L388.012 259.224L379.089 250.301L388.012 241.378L392.17 245.536V255.067Z" fill="#338EEE"/>
<rect x="376.01" y="119.74" width="6.77339" height="6.77339" transform="rotate(-45 376.01 119.74)" fill="#FED500"/>
<rect x="358.13" y="119.748" width="12.6191" height="12.6191" transform="rotate(-45 358.13 119.748)" fill="#FED500"/>
<path fill-rule="evenodd" clip-rule="evenodd" d="M392.171 116.694L390.427 114.951L385.638 119.74L390.427 124.53L392.171 122.786V116.694Z" fill="#FED500"/>
<path fill-rule="evenodd" clip-rule="evenodd" d="M392.17 126.314L390.434 124.578L381.511 133.501L390.434 142.424L392.17 140.688V126.314Z" fill="#338EEE"/>
<path fill-rule="evenodd" clip-rule="evenodd" d="M373.57 68.1573L369.298 63.8859L373.631 59.5536L377.902 63.825L373.57 68.1573ZM382.322 68.1573L378.051 63.8858L382.444 59.4927L359.346 36.3949L354.909 40.8321L350.533 36.4558L346.096 40.893L369.088 63.8859L346.096 86.8787L350.472 91.2551L354.848 86.8787L359.225 91.255L363.601 86.8786L367.978 91.255L372.354 86.8786L376.73 91.255L392.171 75.8149V67.0621L391.075 68.1573L386.699 63.7808L382.322 68.1573ZM392.171 60.345L391.258 59.4321L386.821 63.8691L363.723 40.7713L368.16 36.3341L372.536 40.7104L376.973 36.2734L392.171 51.4706V60.345Z" fill="#FED500"/>
<path fill-rule="evenodd" clip-rule="evenodd" d="M373.586 41.712L364.663 50.635L373.586 59.558L382.509 50.635L373.586 41.712ZM373.586 68.1879L364.663 77.1109L373.586 86.0339L382.509 77.1109L373.586 68.1879Z" fill="#338EEE"/>
<rect x="345.752" y="67.8196" width="6.77339" height="6.77339" transform="rotate(-45 345.752 67.8196)" fill="#FED500"/>
<rect x="345.752" y="58.192" width="6.77339" height="6.77339" transform="rotate(-45 345.752 58.192)" fill="#FED500"/>
<rect x="336.124" y="67.8196" width="6.77339" height="6.77339" transform="rotate(-45 336.124 67.8196)" fill="#FED500"/>
<rect x="336.124" y="58.192" width="6.77339" height="6.77339" transform="rotate(-45 336.124 58.192)" fill="#FED500"/>
<path fill-rule="evenodd" clip-rule="evenodd" d="M392.17 5.87136L386.235 0L381.859 4.32935L386.235 8.65885L381.859 12.9882L392.17 23.1887V5.87136ZM392.17 23.1889L386.235 17.3177L381.859 21.647L386.235 25.9762L381.859 30.3055L392.17 40.506V23.1889Z" fill="#FED500"/>
<path fill-rule="evenodd" clip-rule="evenodd" d="M392.17 22.1587L387.08 27.1945L392.17 32.2303V22.1587Z" fill="#338EEE"/>
<rect width="6.73707" height="6.73707" transform="matrix(0.710919 0.703274 -0.710919 0.703274 363.955 21.6655)" fill="#FED500"/>
<rect width="6.73707" height="6.73707" transform="matrix(0.710919 0.703274 -0.710919 0.703274 373.582 21.6655)" fill="#FED500"/>
<rect width="6.73707" height="6.73707" transform="matrix(0.710919 0.703274 -0.710919 0.703274 363.955 12.1414)" fill="#FED500"/>
<rect width="6.73707" height="6.73707" transform="matrix(0.710919 0.703274 -0.710919 0.703274 373.582 12.1414)" fill="#FED500"/>
<rect width="6.77339" height="6.77339" transform="matrix(-0.707107 0.707107 0.707107 0.707107 56.5541 357.942)" fill="#FED500"/>
<rect width="6.77339" height="6.77339" transform="matrix(-0.707107 0.707107 0.707107 0.707107 46.9266 357.942)" fill="#FED500"/>
<rect width="6.77339" height="6.77339" transform="matrix(-0.707107 0.707107 0.707107 0.707107 56.5541 348.314)" fill="#FED500"/>
<rect width="6.77339" height="6.77339" transform="matrix(-0.707107 0.707107 0.707107 0.707107 46.9266 348.314)" fill="#FED500"/>
<path fill-rule="evenodd" clip-rule="evenodd" d="M37.3232 383.73L25.1297 371.536L29.5669 367.099L25.1904 362.722L29.6276 358.285L52.6205 381.278L75.6133 358.285L79.9897 362.662L75.6133 367.038L79.9897 371.415L75.6133 375.791L79.9897 380.167L76.4274 383.73H54.8622L52.6205 381.488L50.3787 383.73H37.3232ZM37.323 383.73L29.506 375.913L25.0688 380.35L28.4486 383.73H37.323ZM79.9598 388.89V388.95L79.9897 388.92L79.9598 388.89Z" fill="#FED500"/>
<rect width="6.73707" height="6.73707" transform="matrix(0.703274 0.710919 0.703274 -0.710919 10.4 376.145)" fill="#FED500"/>
<rect width="6.73707" height="6.73707" transform="matrix(0.703274 0.710919 0.703274 -0.710919 0.875854 376.145)" fill="#FED500"/>
<rect width="6.73707" height="6.73707" transform="matrix(0.703274 0.710919 0.703274 -0.710919 93.954 376.145)" fill="#FED500"/>
<rect width="6.73707" height="6.73707" transform="matrix(0.703274 0.710919 0.703274 -0.710919 84.4297 376.145)" fill="#FED500"/>
<path fill-rule="evenodd" clip-rule="evenodd" d="M32.4924 383.73L39.3693 376.853L46.2462 383.73H32.4924ZM72.7221 383.73H58.9683L65.8452 376.853L72.7221 383.73Z" fill="#338EEE"/>
<rect x="250.682" y="339.526" width="6.5924" height="6.5924" transform="rotate(-45 250.682 339.526)" fill="#FED500"/>
<rect x="368.277" y="221.572" width="6.5924" height="6.5924" transform="rotate(-45 368.277 221.572)" fill="#FED500"/>
<rect x="250.339" y="320.959" width="6.5924" height="6.5924" transform="rotate(-45 250.339 320.959)" fill="#FED500"/>
<rect x="367.933" y="203.005" width="6.5924" height="6.5924" transform="rotate(-45 367.933 203.005)" fill="#FED500"/>
<rect x="250.506" y="330.282" width="6.5924" height="6.5924" transform="rotate(-45 250.506 330.282)" fill="#FED500"/>
<rect x="368.101" y="212.328" width="6.5924" height="6.5924" transform="rotate(-45 368.101 212.328)" fill="#FED500"/>
<rect x="250.162" y="311.714" width="6.5924" height="6.5924" transform="rotate(-45 250.162 311.714)" fill="#FED500"/>
<rect x="367.757" y="193.76" width="6.5924" height="6.5924" transform="rotate(-45 367.757 193.76)" fill="#FED500"/>
<rect x="300.29" y="262.054" width="6.5924" height="6.5924" transform="rotate(45.9775 300.29 262.054)" fill="#FED500"/>
<rect x="318.861" y="262.027" width="6.5924" height="6.5924" transform="rotate(45.9775 318.861 262.027)" fill="#FED500"/>
<rect x="309.536" y="262.036" width="6.5924" height="6.5924" transform="rotate(45.9775 309.536 262.036)" fill="#FED500"/>
<rect x="328.107" y="262.009" width="6.5924" height="6.5924" transform="rotate(45.9775 328.107 262.009)" fill="#FED500"/>
<rect x="250.162" y="302.43" width="57.1425" height="6.5924" transform="rotate(-45 250.162 302.43)" fill="#FED500"/>
<rect x="332.685" y="266.655" width="57.1425" height="6.5924" transform="rotate(-45 332.685 266.655)" fill="#FED500"/>
<path fill-rule="evenodd" clip-rule="evenodd" d="M215.611 383.73H224.934L259.814 348.849L255.153 344.188L215.611 383.73Z" fill="#FED500"/>
<path fill-rule="evenodd" clip-rule="evenodd" d="M392.17 160.064L367.757 184.476L372.419 189.138L392.17 169.387V160.064Z" fill="#FED500"/>
<path fill-rule="evenodd" clip-rule="evenodd" d="M392.17 98.8069L390.434 97.0708L381.511 105.994L390.434 114.917L392.17 113.181V98.8069Z" fill="#338EEE"/>
</svg>
