<svg width="21" height="20" viewBox="0 0 21 20" fill="none" xmlns="http://www.w3.org/2000/svg">
<path d="M5.99812 0C2.69227 0 0 2.52969 0 5.6375C0 6.59063 0.260859 7.52031 0.748125 8.35C0.633281 8.925 0.5775 9.51719 0.5775 10.1C0.5775 15.3 5.07117 19.525 10.605 19.525C11.1727 19.525 11.7403 19.4891 12.2981 19.4C13.1283 19.7953 14.0618 20 15.0019 20C18.3077 20 21 17.4703 21 14.3625C21 13.5281 20.8064 12.7312 20.4356 11.9875C20.5702 11.3734 20.6456 10.7391 20.6456 10.1C20.6456 4.90156 16.1388 0.675 10.605 0.675C10.0849 0.675 9.55992 0.7125 9.04313 0.7875C8.12109 0.273438 7.07602 0 5.99812 0ZM10.5394 3.75C11.3991 3.75 12.1521 3.83906 12.7837 4.025C13.417 4.20938 13.9535 4.45469 14.3719 4.7625C14.7952 5.07344 15.1184 5.40469 15.3169 5.75C15.517 6.09844 15.6187 6.45313 15.6187 6.7875C15.6187 7.11094 15.4744 7.39375 15.2119 7.65C14.9494 7.90625 14.6196 8.0375 14.2275 8.0375C13.8715 8.0375 13.5942 7.95938 13.4006 7.8C13.2202 7.65 13.0298 7.42188 12.8231 7.0875C12.5836 6.65938 12.303 6.31094 11.97 6.075C11.6468 5.84531 11.0972 5.7375 10.3556 5.7375C9.66656 5.7375 9.10383 5.85625 8.68875 6.1125C8.2868 6.35938 8.09812 6.65156 8.09812 6.9875C8.09812 7.19375 8.16539 7.36406 8.295 7.5125C8.43281 7.66875 8.61492 7.79844 8.85938 7.9125C9.11203 8.03125 9.37289 8.13281 9.63375 8.2C9.90117 8.26875 10.3573 8.37813 10.9725 8.5125C11.7502 8.67031 12.4655 8.83594 13.0987 9.025C13.7386 9.21875 14.2882 9.46094 14.7394 9.7375C15.1987 10.0188 15.5695 10.3797 15.8287 10.8125C16.088 11.2453 16.2094 11.7766 16.2094 12.4C16.2077 13.1438 15.9879 13.8188 15.54 14.4125C15.0938 15.0047 14.4359 15.4812 13.5844 15.8125C12.7411 16.1406 11.7288 16.3 10.5787 16.3C9.19734 16.3 8.04234 16.0766 7.14 15.625C6.49359 15.2984 5.95383 14.8469 5.55187 14.3C5.14172 13.7469 4.935 13.2047 4.935 12.675C4.935 12.3453 5.07609 12.0609 5.34187 11.825C5.60602 11.5938 5.93742 11.475 6.33938 11.475C6.66914 11.475 6.96117 11.5656 7.1925 11.75C7.41562 11.9266 7.6043 12.1891 7.75687 12.525C7.9275 12.8922 8.10961 13.1922 8.30812 13.4375C8.49516 13.6703 8.76258 13.8719 9.10875 14.025C9.45656 14.1813 9.93398 14.2625 10.5131 14.2625C11.3088 14.2625 11.9536 14.1016 12.4425 13.7875C12.9216 13.4812 13.1644 13.1141 13.1644 12.6625C13.1644 12.3063 13.0331 12.0188 12.7837 11.8C12.5212 11.5703 12.1767 11.3969 11.76 11.275C11.322 11.1484 10.7346 11.0078 10.0012 10.8625C9.00375 10.6609 8.15555 10.4187 7.48125 10.15C6.79055 9.87344 6.23438 9.48906 5.8275 9.0125C5.41406 8.52656 5.1975 7.92813 5.1975 7.2125C5.1975 6.52969 5.41898 5.90469 5.85375 5.375C6.28195 4.85 6.90867 4.44219 7.7175 4.1625C8.51484 3.88438 9.46641 3.75 10.5394 3.75Z" fill="white"/>
</svg>
