<svg width="22" height="22" viewBox="0 0 22 22" fill="none" xmlns="http://www.w3.org/2000/svg">
<path d="M11 22C17.0751 22 22 17.0751 22 11C22 4.92486 17.0751 0 11 0C4.92486 0 0 4.92486 0 11C0 17.0751 4.92486 22 11 22Z" fill="#40B3E0"/>
<path d="M7.44604 11.8041L8.7511 15.4163C8.7511 15.4163 8.91427 15.7543 9.08898 15.7543C9.2637 15.7543 11.8624 13.0508 11.8624 13.0508L14.7521 7.46927L7.49261 10.8717L7.44604 11.8041Z" fill="#C8DAEA"/>
<path d="M9.1763 12.7305L8.92577 15.393C8.92577 15.393 8.82091 16.2088 9.63656 15.393C10.4522 14.5772 11.2329 13.9481 11.2329 13.9481" fill="#A9C6D8"/>
<path d="M7.46944 11.9329L4.7849 11.0582C4.7849 11.0582 4.46406 10.9281 4.56737 10.6329C4.58864 10.572 4.63154 10.5202 4.75987 10.4312C5.35469 10.0166 15.7696 6.27324 15.7696 6.27324C15.7696 6.27324 16.0636 6.17415 16.2371 6.24006C16.28 6.25334 16.3186 6.27778 16.3489 6.31088C16.3793 6.34398 16.4003 6.38454 16.4099 6.42843C16.4286 6.50595 16.4364 6.58571 16.4331 6.66539C16.4323 6.73432 16.424 6.79822 16.4177 6.89841C16.3542 7.92186 14.456 15.5603 14.456 15.5603C14.456 15.5603 14.3424 16.0072 13.9355 16.0225C13.8355 16.0258 13.7359 16.0088 13.6426 15.9727C13.5493 15.9366 13.4642 15.8821 13.3924 15.8124C12.5939 15.1256 9.83398 13.2708 9.22412 12.8629C9.21037 12.8535 9.19878 12.8413 9.19015 12.8271C9.18151 12.8128 9.17603 12.7969 9.17407 12.7804C9.16555 12.7374 9.2123 12.6841 9.2123 12.6841C9.2123 12.6841 14.018 8.41246 14.1459 7.96403C14.1558 7.92929 14.1184 7.91215 14.0681 7.92736C13.749 8.04479 8.21579 11.539 7.60511 11.9247C7.56115 11.938 7.51469 11.9408 7.46944 11.9329Z" fill="white"/>
</svg>
