<svg width="23" height="20" viewBox="0 0 23 20" fill="none" xmlns="http://www.w3.org/2000/svg">
<path d="M23 2.74899C22.1535 3.13117 21.2441 3.38835 20.2896 3.50435C21.2645 2.91086 22.0119 1.97115 22.364 0.850703C21.4529 1.40014 20.4427 1.7994 19.367 2.01522C18.5063 1.08271 17.2803 0.5 15.9233 0.5C13.3174 0.5 11.205 2.64828 11.205 5.29654C11.205 5.67242 11.2475 6.03931 11.3271 6.38911C7.40572 6.18948 3.92931 4.2795 1.60109 1.37676C1.19595 2.08536 0.963309 2.90906 0.963309 3.78941C0.963309 5.453 1.7957 6.92146 3.06154 7.78113C2.28841 7.75595 1.5604 7.54013 0.924388 7.18134C0.924388 7.20202 0.924388 7.2209 0.924388 7.24159C0.924388 9.56612 2.55025 11.5049 4.70951 11.9446C4.3141 12.0543 3.89658 12.1128 3.46579 12.1128C3.16238 12.1128 2.86604 12.0822 2.57855 12.0273C3.17919 13.9328 4.92181 15.3203 6.98642 15.359C5.37206 16.6458 3.33753 17.4129 1.12607 17.4129C0.745702 17.4129 0.369755 17.3904 0 17.3454C2.0885 18.706 4.56798 19.5 7.23322 19.5C15.9127 19.5 20.6576 12.191 20.6576 5.85226C20.6576 5.64454 20.6532 5.43772 20.6444 5.23179C21.567 4.55466 22.3675 3.71028 23 2.74899Z" fill="#55ACEE"/>
</svg>
