<svg width="20" height="22" viewBox="0 0 20 22" fill="none" xmlns="http://www.w3.org/2000/svg">
<path d="M10 0.5C4.48614 0.5 6.45317e-05 5.21039 6.45317e-05 11C6.45317e-05 12.8078 0.444846 14.5855 1.28832 16.1541L0.0161514 20.9202C-0.0255876 21.0768 0.0148471 21.2448 0.122673 21.3612C0.205716 21.4512 0.318759 21.5 0.434846 21.5C0.469628 21.5 0.504845 21.4954 0.539193 21.4868L5.27657 20.2546C6.72309 21.07 8.35221 21.5 10 21.5C15.5139 21.5 20 16.7896 20 11C20 5.21039 15.5139 0.5 10 0.5ZM15.0305 14.7051C14.8165 15.3269 13.7905 15.8944 13.2974 15.9706C12.8548 16.0386 12.2948 16.0678 11.68 15.8652C11.3074 15.7419 10.8292 15.5785 10.2166 15.3041C7.64134 14.1509 5.95961 11.4625 5.83092 11.2849C5.70265 11.1073 4.78266 9.8418 4.78266 8.53204C4.78266 7.22228 5.4457 6.57813 5.68135 6.31152C5.917 6.04491 6.19483 5.97826 6.36613 5.97826C6.53743 5.97826 6.7083 5.98054 6.8583 5.98785C7.01613 5.99607 7.22787 5.9253 7.43613 6.44483C7.65004 6.97804 8.16352 8.2878 8.22699 8.42157C8.29134 8.55487 8.33395 8.71054 8.24873 8.88813C8.16352 9.06572 8.12091 9.17665 7.99221 9.33233C7.86352 9.488 7.72265 9.67928 7.607 9.79889C7.4783 9.93174 7.34482 10.0755 7.49439 10.3422C7.64395 10.6088 8.15917 11.4803 8.92264 12.186C9.90308 13.0927 10.7305 13.3739 10.987 13.5072C11.2435 13.6405 11.3935 13.6182 11.5431 13.4406C11.6926 13.2625 12.1848 12.6631 12.3557 12.397C12.5265 12.1308 12.6978 12.1746 12.9335 12.2637C13.1692 12.3522 14.4313 12.9959 14.6878 13.1292C14.9444 13.2625 15.1157 13.3292 15.18 13.4401C15.2444 13.5506 15.2444 14.0838 15.0305 14.7051Z" fill="white"/>
</svg>
