<svg width="21" height="18" viewBox="0 0 21 18" fill="none" xmlns="http://www.w3.org/2000/svg">
<path d="M20.4138 3.42188C20.2197 2.25354 19.2947 1.40271 18.2213 1.13708C16.615 0.765625 13.6422 0.5 10.4258 0.5C7.21126 0.5 4.19087 0.765625 2.58265 1.13708C1.51115 1.40271 0.584285 2.19959 0.390158 3.42188C0.194128 4.75 0 6.60938 0 9C0 11.3906 0.194127 13.25 0.437738 14.5781C0.633768 15.7465 1.55873 16.5973 2.63023 16.8629C4.33551 17.2344 7.25884 17.5 10.4753 17.5C13.6917 17.5 16.615 17.2344 18.3203 16.8629C19.3918 16.5973 20.3167 15.8004 20.5128 14.5781C20.7069 13.25 20.9505 11.3367 21 9C20.901 6.60938 20.6574 4.75 20.4138 3.42188ZM7.79554 12.7188V5.28125L13.7393 9L7.79554 12.7188Z" fill="white"/>
</svg>
